<svg width="3840" height="2160" viewBox="0 0 3840 2160" fill="none" xmlns="http://www.w3.org/2000/svg">
<path d="M0 0H3840V2160H0V0Z" fill="white"/>
<path d="M322.609 1211.5C239.865 1104.36 311.456 1019.01 368.3 922.038C382.207 898.353 395.002 874.03 406.642 849.153C435.619 786.239 453.484 715.122 474.482 648.901C498.32 573.715 526.042 541.002 590.535 494.789C622.138 472.145 672.431 429.13 715.734 432.151C764.389 439.72 886.41 535.152 910.852 572.574C957.836 650.474 969.72 747.744 1006.85 830.636C1025.02 871.188 1046.76 909.753 1069.45 947.868C1103.02 1004.27 1149.02 1070.62 1136.57 1139.96C1122 1221.1 1035.53 1279.83 966.337 1312.53C1028.24 1307.97 1079.77 1272.8 1119.38 1227.03C1125.41 1220.05 1131.16 1212.84 1136.62 1205.41C1165.63 1218.26 1195.11 1231.23 1224.03 1244.19C1287.18 1272.48 1332.99 1299.05 1336.35 1375.2C1304.82 1348.46 1289.7 1342.21 1249.9 1332.95C1298.2 1360.15 1367.8 1390.92 1384.18 1450.01C1385.4 1454.48 1386.56 1458.96 1387.64 1463.47C1286.29 1381.95 1149.5 1382.48 1028.23 1412.77C949.933 1428.86 889.565 1455.26 819.694 1491.92C852.032 1445.64 882.952 1426.6 929.512 1397.97C927.769 1398.38 926.034 1398.84 924.313 1399.33C904.905 1404.91 883.5 1415.13 865.729 1424.58C786.094 1466.97 754.434 1529.79 712.871 1605.81C711.622 1603.25 710.351 1600.7 709.061 1598.17C655.524 1493.17 613.179 1434.57 495.851 1396.54C548.345 1426.74 571.031 1443.58 607.7 1490.94C491.332 1430.47 400.039 1403.98 270.17 1395.22C276.272 1345.24 280.547 1308.6 300.026 1260.71C303.793 1251.45 306.628 1240.97 312.409 1232.85C350.323 1273.74 402.15 1308.37 459.137 1312.25C405.793 1287.27 361.442 1256.28 322.609 1211.5Z" fill="white"/>
<path d="M322.609 1211.5C239.865 1104.36 311.456 1019.01 368.301 922.038C382.207 898.353 395.002 874.03 406.642 849.153C435.619 786.239 453.484 715.122 474.482 648.901C498.321 573.715 526.042 541.002 590.535 494.789C622.138 472.145 672.431 429.13 715.734 432.151C764.389 439.72 886.41 535.152 910.852 572.574C957.836 650.474 969.72 747.744 1006.85 830.636C1025.02 871.188 1046.76 909.753 1069.45 947.868C1103.02 1004.27 1149.02 1070.62 1136.57 1139.96C1122 1221.1 1035.53 1279.83 966.337 1312.53C1028.24 1307.97 1079.77 1272.8 1119.38 1227.03C1125.41 1220.05 1131.16 1212.84 1136.62 1205.41C1165.63 1218.26 1195.11 1231.23 1224.03 1244.19C1287.18 1272.48 1332.99 1299.05 1336.35 1375.2C1304.82 1348.46 1289.7 1342.21 1249.9 1332.95C1298.2 1360.15 1367.8 1390.92 1384.18 1450.01C1385.4 1454.48 1386.56 1458.96 1387.64 1463.47C1286.29 1381.95 1149.5 1382.48 1028.23 1412.77C1023.25 1406.63 1021 1404.23 1013.2 1402.09C992.713 1396.47 971.799 1392.64 951.045 1388.13C930.405 1383.54 909.898 1378.38 889.547 1372.65C877.8 1369.42 854.451 1364.35 848.627 1354.11C905.876 1299.17 973.386 1250.84 1023.82 1189.3C1034.38 1176.43 1046.01 1157.09 1055.02 1142.58C1053.05 1178.52 1050.11 1186.73 1036.48 1220.45C1127.47 1123.21 1109.92 1050.87 1000.16 973.784C896.709 902.472 815.857 761.782 678.472 759.369C631.712 758.547 597.174 807.835 568.517 839.204C552.872 856.437 536.659 873.145 519.906 889.302C468.577 939.097 410.079 979.214 360.238 1030.29C318.664 1072.89 319.147 1120.32 348.009 1169.61C339.264 1178.43 327.281 1199.76 322.609 1211.5Z" fill="#2578F0"/>
<path d="M800.526 752.42C803.177 753.209 805.798 754.092 808.387 755.069C845.014 769.06 864.075 804.685 878.966 838.267C863.989 827.322 821.895 771.108 800.526 752.42Z" fill="white"/>
<path d="M367.762 1139.3C387.737 1174.14 404.428 1197.49 433.526 1225.73C521.422 1311.02 628.147 1377.94 683.809 1491.52C694.237 1512.8 706.095 1534.74 712.522 1557.61C752.567 1471.59 776.608 1421.88 848.627 1354.11C854.45 1364.35 877.8 1369.42 889.547 1372.65C909.898 1378.38 930.405 1383.54 951.045 1388.13C971.799 1392.64 992.713 1396.47 1013.2 1402.09C1021 1404.23 1023.25 1406.63 1028.23 1412.77C949.933 1428.86 889.565 1455.26 819.694 1491.92C852.032 1445.64 882.952 1426.6 929.512 1397.97C927.769 1398.38 926.034 1398.84 924.313 1399.33C904.905 1404.91 883.5 1415.13 865.729 1424.58C786.094 1466.97 754.434 1529.79 712.871 1605.81C711.622 1603.25 710.351 1600.7 709.061 1598.17C655.524 1493.17 613.179 1434.57 495.851 1396.54C548.345 1426.74 571.031 1443.58 607.7 1490.94C491.332 1430.47 400.039 1403.98 270.17 1395.22C276.272 1345.24 280.547 1308.6 300.026 1260.71C303.793 1251.45 306.628 1240.97 312.409 1232.85C350.323 1273.74 402.15 1308.37 459.137 1312.25C405.793 1287.27 361.442 1256.28 322.609 1211.5C327.281 1199.76 339.264 1178.43 348.009 1169.61C360.172 1189.24 373.346 1203.89 389.39 1220.51C374.979 1191.58 369 1172.1 367.762 1139.3Z" fill="#0449C6"/>
<path d="M678.615 1010.81C711.159 1019.37 722.897 1016.48 757.205 1012.69C761.072 1009.97 761.533 999.757 776.34 1004.58C800.177 1012.34 842.629 1030.03 857.137 1050.82C867.137 1065.14 872.439 1098.3 878.057 1102.49L880.948 1101.39C882.371 1081.72 874.584 1056.48 879.11 1036.11C889.85 987.764 903.917 981.652 905.285 928.837C927.02 967.968 925.871 1057.15 917.975 1102.85C915.562 1116.83 893.327 1138.84 895.269 1160.68C891.6 1190.83 880.605 1222.92 860.88 1246.74C858.335 1231.8 855.656 1209.84 852.189 1196.02C845.143 1253.49 834.851 1295.79 788.546 1334.52C790.646 1306.93 790.254 1298.54 785.72 1271.28C781.301 1293.72 780.384 1305.81 773.458 1328.19C756.744 1371.44 740.825 1384.4 712.798 1419.42C704.072 1407.91 692.522 1396.33 683.368 1384.62C651.622 1344.03 646.766 1315.08 639.999 1266.46C635.752 1293.5 634.61 1307.1 635.799 1334.37C632.936 1332.24 630.165 1329.99 627.493 1327.62C590.902 1295.33 575.861 1240.71 573.015 1193.55L563.818 1246.96C534.294 1216.17 535.23 1177.11 524.165 1139.73C516.684 1120.48 502.22 1101.72 500.4 1080.55C498.32 1056.37 500.968 1030.45 501.279 1005.93C507.298 1000.01 520.239 984.676 527.169 983.656L527.831 985.46C542.647 1023.21 548.201 1038.6 543.542 1080.32C543.005 1085.11 541.543 1096.97 545.509 1099.84C554.921 1088.23 559.849 1061.1 568.897 1049.15C578.97 1035.84 644.362 999.624 658.676 1004.92C661.592 1015.12 654.602 1013.24 659.617 1017.6C666.791 1016.66 672.047 1013.81 678.615 1010.81Z" fill="#1A6DEE"/>
<path d="M501.279 1005.93C507.298 1000.01 520.239 984.676 527.169 983.656L527.831 985.46C518.059 1015.77 534.236 1083.41 544.436 1113.3C576.403 1206.94 681.885 1296.83 773.458 1328.19C756.744 1371.44 740.825 1384.4 712.798 1419.42C704.072 1407.91 692.522 1396.33 683.368 1384.62C651.622 1344.03 646.766 1315.08 639.999 1266.46C635.752 1293.5 634.61 1307.1 635.799 1334.37C632.936 1332.24 630.165 1329.99 627.493 1327.62C590.902 1295.33 575.861 1240.71 573.015 1193.55L563.818 1246.96C534.294 1216.17 535.23 1177.11 524.165 1139.73C516.684 1120.48 502.22 1101.72 500.4 1080.55C498.32 1056.37 500.968 1030.45 501.279 1005.93Z" fill="#0449C6"/>
<path d="M712.005 1044.11C723.945 1047.72 737.584 1054.31 749.893 1055.59C815.981 1062.46 803.372 1090.89 799.012 1147.73C773.072 1105.27 760.987 1097.75 712.355 1083.33C663.735 1093.75 649.402 1110.98 624.341 1147.86C614.882 1036.91 629.676 1076.37 712.005 1044.11Z" fill="white"/>
<path d="M700.055 937.267C721.007 934.092 745.847 945.963 758.428 963.04C771.092 980.23 733.691 990.442 722.642 994.37C695.274 1005.02 624.401 970.906 700.055 937.267Z" fill="#1A6DEE"/>
<path d="M518.479 928.923C519.407 951.916 519.664 961.962 527.169 983.656C520.239 984.676 507.298 1000.01 501.279 1005.93C500.786 973.072 502.091 957.864 518.479 928.923Z" fill="#398DF3"/>
<path d="M2798.81 651.688C2864.87 486.373 3109.97 528.832 3115.13 674.852C3114.62 721.125 3104.49 762.881 3102.98 808.142C3101.85 841.918 3104.31 878.391 3104.78 912.441L3105.32 1066.7C3105.6 1131.74 3110.48 1206.46 3081.06 1265.88C3037.33 1354.55 2931.28 1389.29 2838.36 1391.21C2753.08 1392.97 2648.08 1370.43 2596.69 1295.12C2581.63 1273.07 2573.96 1247.95 2565.79 1222.81C2607.09 1224.07 2648.44 1224.53 2689.78 1224.19C2696.04 1237.13 2704.39 1248.97 2714.49 1259.2C2773.14 1318.25 2884.58 1316.13 2944.09 1258.62C2983.61 1220.42 2979.23 1143.25 2978.29 1092.48C2913.36 1166.37 2837.57 1197.62 2739.24 1173.5C2677.76 1158.91 2624.74 1120.24 2592.06 1066.17C2545.67 989.512 2540.36 885 2575.48 802.774C2601.6 741.658 2647.93 706.157 2703.32 672.862C2696.46 733.881 2693.04 793.614 2689.24 854.737C2684.42 932.119 2670.34 996.126 2739.84 1051.32C2770.39 1075.42 2809.24 1086.46 2847.9 1082.01C2987.44 1064.92 3023.89 864.934 2920.44 783.009C2876.66 748.335 2834.81 753.654 2784.17 760.427C2787.68 720.866 2791.71 690.787 2798.81 651.688Z" fill="#0449C6"/>
<path d="M2798.81 651.688C2864.87 486.373 3109.97 528.832 3115.13 674.852C3104.01 665.912 3069.68 668.97 3054.62 669.047C3030.13 669.133 3005.62 668.908 2981.14 668.377C2981.49 694.682 2981.16 721.693 2981.12 748.057C2924.19 673.704 2891.16 664.747 2798.81 651.688Z" fill="#398DF3"/>
<path d="M3462.49 653.289C3469.69 652.785 3476.91 652.541 3484.13 652.558C3632.06 652.577 3741.11 735.422 3754.33 888.746C3756.32 911.657 3756.17 933.054 3756.19 956.023L3334.91 956.423C3342.28 1004.12 3354.69 1040.2 3395.49 1070.48C3428.89 1094.84 3470.51 1105.1 3511.41 1099.03C3561.38 1091.41 3595.03 1067.3 3624.41 1027.46L3672.19 1027.81L3748.2 1027.69C3713.33 1137.43 3627.28 1184.44 3517.31 1193.15C3436.35 1199.57 3359.7 1184.68 3296.68 1130.44C3179.66 1029.72 3180.75 850.823 3275.66 735.788C3318.24 684.339 3398.06 657.827 3462.49 653.289Z" fill="#0449C6"/>
<path d="M3476.51 748.802C3503.63 745.749 3544.09 753.596 3566.53 768.759C3606.49 795.748 3619.13 833.593 3628.33 877.391L3494.06 877.526L3337.71 877.626C3353.25 796.479 3396.34 759.247 3476.51 748.802Z" fill="white"/>
<path d="M2200.46 653.31C2262.66 648.474 2345.93 664.423 2394.58 706.314C2415.49 724.117 2430.86 747.525 2438.89 773.779C2456.78 832.958 2448.84 903.707 2448.94 964.603C2449.05 1033.69 2446.88 1108.95 2452.2 1177.63L2331.3 1177.37C2330.48 1154.18 2330.01 1130.98 2329.91 1107.77C2278.86 1166.29 2215.91 1197.35 2136.99 1193.69C2102.76 1192.1 2069.42 1188.11 2037.83 1173.64C2001.92 1157.44 1974.04 1127.48 1960.46 1090.51C1912.59 902.284 2103.23 888.067 2233.91 872.923C2250.62 869.076 2283.51 867.223 2297.87 858.919C2355.11 825.808 2308.73 766.311 2262.15 754.538C2215.78 742.811 2182.31 742.901 2139.47 761.843C2114.34 772.946 2105.4 795.472 2098.39 818.136L1971 819.459C2006.55 690.926 2070.75 660.036 2200.46 653.31Z" fill="#0449C6"/>
<path d="M2311.69 932.239C2313.75 931.787 2316.13 931.86 2318.29 931.796C2332.54 944.061 2320.03 1010.11 2312.12 1027.31C2275.54 1106.92 2185.2 1121.45 2111.12 1089.63C2097.49 1080.25 2086.86 1068.67 2082.99 1052.31C2061.86 963.021 2185.44 956.349 2240.44 947.325C2264.38 943.279 2288.16 938.246 2311.69 932.239Z" fill="white"/>
<path d="M1613.75 653.31C1738.67 647.91 1846.96 681.576 1870.4 817.391L1749.62 817.097C1731.42 764.912 1685.19 740.374 1631.59 741.966C1597.77 742.971 1534.62 757.924 1537.19 801.321C1538.33 827.49 1558.96 845.387 1582.26 853.929C1610.96 863.792 1644.11 871.193 1674.14 875.693C1735.33 884.863 1790.87 897.647 1839.6 937.562C1904.17 990.459 1886.29 1076.17 1837.84 1132.05C1796.2 1180.08 1699.3 1190.54 1640.53 1193.74C1508.46 1189.1 1418.81 1159.13 1388.33 1020.19C1428.19 1020.21 1468.06 1020 1507.92 1019.56C1544.39 1097.19 1577.92 1104.95 1661.5 1104.14C1698.91 1103.78 1758.04 1082.02 1752.68 1036.19C1744.42 965.439 1623.9 969.401 1571.67 954.598C1526.83 942.116 1484.12 935.293 1448.52 903.641C1394.08 854.893 1397.79 770.548 1445.03 718.369C1488.93 669.879 1551.01 656.546 1613.75 653.31Z" fill="#0449C6"/>
<path d="M290.242 1206.51C296.696 1213.34 306.165 1225.35 312.409 1232.85C306.628 1240.97 303.793 1251.45 300.026 1260.71C280.547 1308.6 276.272 1345.24 270.171 1395.22C200.659 1393.85 133.035 1402.41 72.4868 1439.31C58.3776 1447.9 49.9664 1455.83 37 1465.87C38.671 1460.23 40.4397 1454.62 42.3055 1449.04C61.3579 1392.9 125.059 1358.52 175.482 1333.61C139.887 1340.72 120.129 1350.77 91.9562 1372.83C93.6031 1352.24 93.6269 1340.38 102.63 1321.15C124.656 1274.1 182.846 1253.75 227.184 1233.4C245.451 1225.02 271.882 1213.03 290.242 1206.51Z" fill="#1A6DEE"/>
<path d="M1515.81 1704.48C1499.38 1704.48 1485.36 1701.39 1473.76 1695.2C1462.16 1688.82 1452.3 1680.12 1444.18 1669.1L1462.16 1654.02C1469.31 1663.49 1477.24 1670.74 1485.94 1675.77C1494.64 1680.6 1504.89 1683.02 1516.68 1683.02C1531.18 1683.02 1542.2 1679.54 1549.74 1672.58C1557.47 1665.62 1561.34 1656.34 1561.34 1644.74C1561.34 1635.07 1558.44 1627.63 1552.64 1622.41C1546.84 1617.19 1537.27 1613.03 1523.93 1609.94L1507.4 1606.17C1488.84 1601.92 1474.63 1595.54 1464.77 1587.03C1455.1 1578.33 1450.27 1566.15 1450.27 1550.49C1450.27 1541.6 1451.91 1533.67 1455.2 1526.71C1458.49 1519.75 1463.03 1513.95 1468.83 1509.31C1474.82 1504.67 1481.88 1501.19 1490 1498.87C1498.31 1496.36 1507.4 1495.1 1517.26 1495.1C1532.53 1495.1 1545.58 1497.9 1556.41 1503.51C1567.43 1509.12 1576.71 1517.33 1584.25 1528.16L1565.98 1541.5C1560.37 1533.77 1553.61 1527.68 1545.68 1523.23C1537.75 1518.78 1527.89 1516.56 1516.1 1516.56C1503.15 1516.56 1492.9 1519.36 1485.36 1524.97C1478.01 1530.38 1474.34 1538.6 1474.34 1549.62C1474.34 1559.29 1477.43 1566.63 1483.62 1571.66C1490 1576.49 1499.57 1580.36 1512.33 1583.26L1528.86 1587.03C1548.77 1591.48 1563.18 1598.24 1572.07 1607.33C1580.96 1616.42 1585.41 1628.5 1585.41 1643.58C1585.41 1652.86 1583.77 1661.27 1580.48 1668.81C1577.39 1676.35 1572.84 1682.73 1566.85 1687.95C1560.86 1693.17 1553.51 1697.23 1544.81 1700.13C1536.3 1703.03 1526.64 1704.48 1515.81 1704.48ZM1733.91 1701C1725.21 1701 1718.92 1698.68 1715.06 1694.04C1711.38 1689.4 1709.06 1683.6 1708.1 1676.64H1706.65C1703.36 1685.92 1697.95 1692.88 1690.41 1697.52C1682.87 1702.16 1673.88 1704.48 1663.44 1704.48C1647.58 1704.48 1635.21 1700.42 1626.32 1692.3C1617.62 1684.18 1613.27 1673.16 1613.27 1659.24C1613.27 1645.13 1618.39 1634.3 1628.64 1626.76C1639.08 1619.22 1655.22 1615.45 1677.07 1615.45H1706.65V1600.66C1706.65 1590.03 1703.75 1581.91 1697.95 1576.3C1692.15 1570.69 1683.25 1567.89 1671.27 1567.89C1662.18 1567.89 1654.54 1569.92 1648.36 1573.98C1642.36 1578.04 1637.34 1583.45 1633.28 1590.22L1619.36 1577.17C1623.42 1569.05 1629.89 1562.19 1638.79 1556.58C1647.68 1550.78 1658.89 1547.88 1672.43 1547.88C1690.6 1547.88 1704.71 1552.33 1714.77 1561.22C1724.82 1570.11 1729.85 1582.49 1729.85 1598.34V1680.7H1746.96V1701H1733.91ZM1667.21 1684.76C1673.01 1684.76 1678.32 1684.08 1683.16 1682.73C1687.99 1681.38 1692.15 1679.44 1695.63 1676.93C1699.11 1674.42 1701.81 1671.52 1703.75 1668.23C1705.68 1664.94 1706.65 1661.37 1706.65 1657.5V1632.85H1675.91C1662.57 1632.85 1652.8 1634.78 1646.62 1638.65C1640.62 1642.52 1637.63 1648.12 1637.63 1655.47V1661.56C1637.63 1668.91 1640.24 1674.61 1645.46 1678.67C1650.87 1682.73 1658.12 1684.76 1667.21 1684.76ZM1788.19 1571.66H1763.83V1551.36H1788.19V1521.2C1788.19 1510.76 1790.89 1502.35 1796.31 1495.97C1801.72 1489.59 1809.94 1486.4 1820.96 1486.4H1843.58V1506.7H1811.39V1551.36H1843.58V1571.66H1811.39V1701H1788.19V1571.66ZM1929.22 1704.48C1918.97 1704.48 1909.69 1702.64 1901.38 1698.97C1893.26 1695.3 1886.2 1690.08 1880.21 1683.31C1874.41 1676.35 1869.87 1668.13 1866.58 1658.66C1863.49 1648.99 1861.94 1638.17 1861.94 1626.18C1861.94 1614.39 1863.49 1603.66 1866.58 1593.99C1869.87 1584.32 1874.41 1576.11 1880.21 1569.34C1886.2 1562.38 1893.26 1557.06 1901.38 1553.39C1909.69 1549.72 1918.97 1547.88 1929.22 1547.88C1939.27 1547.88 1948.26 1549.72 1956.19 1553.39C1964.12 1557.06 1970.88 1562.19 1976.49 1568.76C1982.1 1575.14 1986.35 1582.78 1989.25 1591.67C1992.34 1600.56 1993.89 1610.33 1993.89 1620.96V1631.98H1886.3V1638.94C1886.3 1645.32 1887.27 1651.31 1889.2 1656.92C1891.33 1662.33 1894.23 1667.07 1897.9 1671.13C1901.77 1675.19 1906.41 1678.38 1911.82 1680.7C1917.43 1683.02 1923.71 1684.18 1930.67 1684.18C1940.14 1684.18 1948.36 1681.96 1955.32 1677.51C1962.47 1673.06 1967.98 1666.68 1971.85 1658.37L1988.38 1670.26C1983.55 1680.51 1976.01 1688.82 1965.76 1695.2C1955.51 1701.39 1943.33 1704.48 1929.22 1704.48ZM1929.22 1567.31C1922.84 1567.31 1917.04 1568.47 1911.82 1570.79C1906.6 1572.92 1902.06 1576.01 1898.19 1580.07C1894.52 1584.13 1891.62 1588.96 1889.49 1594.57C1887.36 1599.98 1886.3 1605.98 1886.3 1612.55V1614.58H1968.95V1611.39C1968.95 1598.05 1965.28 1587.42 1957.93 1579.49C1950.78 1571.37 1941.21 1567.31 1929.22 1567.31ZM2065.18 1701C2057.06 1701 2050.87 1698.78 2046.62 1694.33C2042.56 1689.69 2040.53 1683.7 2040.53 1676.35V1571.66H2015.88V1551.36H2029.8C2034.83 1551.36 2038.21 1550.39 2039.95 1548.46C2041.88 1546.33 2042.85 1542.76 2042.85 1537.73V1509.89H2063.73V1551.36H2096.5V1571.66H2063.73V1680.7H2094.18V1701H2065.18ZM2226.01 1551.36H2248.92L2181.93 1735.8C2180.19 1740.25 2178.45 1743.92 2176.71 1746.82C2174.97 1749.91 2172.84 1752.33 2170.33 1754.07C2167.82 1755.81 2164.63 1757.07 2160.76 1757.84C2157.09 1758.61 2152.54 1759 2147.13 1759H2135.24V1738.7H2158.73L2170.04 1706.8L2114.07 1551.36H2137.27L2173.23 1653.15L2180.19 1677.51H2181.64L2189.76 1653.15L2226.01 1551.36ZM2355.16 1571.66H2330.8V1551.36H2355.16V1521.2C2355.16 1510.76 2357.87 1502.35 2363.28 1495.97C2368.69 1489.59 2376.91 1486.4 2387.93 1486.4H2410.55V1506.7H2378.36V1551.36H2410.55V1571.66H2378.36V1701H2355.16V1571.66ZM2496.48 1704.48C2486.43 1704.48 2477.24 1702.64 2468.93 1698.97C2460.62 1695.3 2453.46 1690.08 2447.47 1683.31C2441.67 1676.35 2437.13 1668.13 2433.84 1658.66C2430.55 1648.99 2428.91 1638.17 2428.91 1626.18C2428.91 1614.39 2430.55 1603.66 2433.84 1593.99C2437.13 1584.32 2441.67 1576.11 2447.47 1569.34C2453.46 1562.38 2460.62 1557.06 2468.93 1553.39C2477.24 1549.72 2486.43 1547.88 2496.48 1547.88C2506.53 1547.88 2515.62 1549.72 2523.74 1553.39C2532.05 1557.06 2539.21 1562.38 2545.2 1569.34C2551.19 1576.11 2555.83 1584.32 2559.12 1593.99C2562.41 1603.66 2564.05 1614.39 2564.05 1626.18C2564.05 1638.17 2562.41 1648.99 2559.12 1658.66C2555.83 1668.13 2551.19 1676.35 2545.2 1683.31C2539.21 1690.08 2532.05 1695.3 2523.74 1698.97C2515.62 1702.64 2506.53 1704.48 2496.48 1704.48ZM2496.48 1683.89C2509.05 1683.89 2519.29 1680.02 2527.22 1672.29C2535.15 1664.56 2539.11 1652.76 2539.11 1636.91V1615.45C2539.11 1599.6 2535.15 1587.8 2527.22 1580.07C2519.29 1572.34 2509.05 1568.47 2496.48 1568.47C2483.91 1568.47 2473.67 1572.34 2465.74 1580.07C2457.81 1587.8 2453.85 1599.6 2453.85 1615.45V1636.91C2453.85 1652.76 2457.81 1664.56 2465.74 1672.29C2473.67 1680.02 2483.91 1683.89 2496.48 1683.89ZM2602.21 1701V1551.36H2625.41V1578.91H2626.86C2629.56 1571.76 2634.4 1565.38 2641.36 1559.77C2648.32 1554.16 2657.89 1551.36 2670.07 1551.36H2679.06V1574.56H2665.43C2652.86 1574.56 2643 1576.98 2635.85 1581.81C2628.89 1586.45 2625.41 1592.35 2625.41 1599.5V1701H2602.21ZM2906.28 1701L2885.98 1641.26H2804.2L2783.9 1701H2759.25L2830.01 1498.58H2861.04L2931.8 1701H2906.28ZM2845.67 1521.2H2844.22L2810 1619.8H2879.89L2845.67 1521.2ZM3089.16 1717.53C3089.16 1733 3083.07 1744.31 3070.89 1751.46C3058.9 1758.81 3040.82 1762.48 3016.66 1762.48C2993.26 1762.48 2976.44 1759.29 2966.2 1752.91C2955.95 1746.53 2950.83 1737.44 2950.83 1725.65C2950.83 1717.53 2952.95 1711.15 2957.21 1706.51C2961.46 1702.06 2967.26 1698.78 2974.61 1696.65V1693.46C2965.71 1689.21 2961.27 1682.25 2961.27 1672.58C2961.27 1665.04 2963.68 1659.34 2968.52 1655.47C2973.35 1651.41 2979.54 1648.41 2987.08 1646.48V1645.32C2978.18 1641.07 2971.22 1634.98 2966.2 1627.05C2961.36 1619.12 2958.95 1609.94 2958.95 1599.5C2958.95 1591.96 2960.3 1585 2963.01 1578.62C2965.71 1572.24 2969.48 1566.83 2974.32 1562.38C2979.34 1557.74 2985.24 1554.16 2992.01 1551.65C2998.97 1549.14 3006.7 1547.88 3015.21 1547.88C3025.84 1547.88 3035.31 1549.81 3043.63 1553.68V1551.07C3043.63 1545.27 3044.98 1540.53 3047.69 1536.86C3050.39 1532.99 3054.84 1531.06 3061.03 1531.06H3083.36V1551.36H3054.94V1560.93C3060.35 1565.57 3064.51 1571.18 3067.41 1577.75C3070.5 1584.13 3072.05 1591.38 3072.05 1599.5C3072.05 1607.04 3070.69 1614 3067.99 1620.38C3065.28 1626.76 3061.41 1632.27 3056.39 1636.91C3051.55 1641.36 3045.66 1644.84 3038.7 1647.35C3031.74 1649.86 3024 1651.12 3015.5 1651.12C3010.66 1651.12 3005.83 1650.64 3001 1649.67C2995.97 1651.02 2991.43 1653.05 2987.37 1655.76C2983.31 1658.27 2981.28 1661.85 2981.28 1666.49C2981.28 1670.94 2983.4 1673.93 2987.66 1675.48C2991.91 1677.03 2997.42 1677.8 3004.19 1677.8H3036.09C3054.65 1677.8 3068.08 1681.38 3076.4 1688.53C3084.9 1695.49 3089.16 1705.16 3089.16 1717.53ZM3067.41 1719.27C3067.41 1713.28 3065.09 1708.44 3060.45 1704.77C3056 1701.29 3047.98 1699.55 3036.38 1699.55H2986.5C2977.22 1703.8 2972.58 1710.57 2972.58 1719.85C2972.58 1726.42 2974.99 1732.03 2979.83 1736.67C2984.85 1741.31 2993.26 1743.63 3005.06 1743.63H3026.52C3039.47 1743.63 3049.52 1741.6 3056.68 1737.54C3063.83 1733.48 3067.41 1727.39 3067.41 1719.27ZM3015.5 1632.56C3025.36 1632.56 3033.19 1630.24 3038.99 1625.6C3044.79 1620.77 3047.69 1613.42 3047.69 1603.56V1595.44C3047.69 1585.58 3044.79 1578.33 3038.99 1573.69C3033.19 1568.86 3025.36 1566.44 3015.5 1566.44C3005.64 1566.44 2997.81 1568.86 2992.01 1573.69C2986.21 1578.33 2983.31 1585.58 2983.31 1595.44V1603.56C2983.31 1613.42 2986.21 1620.77 2992.01 1625.6C2997.81 1630.24 3005.64 1632.56 3015.5 1632.56ZM3170.78 1704.48C3160.53 1704.48 3151.25 1702.64 3142.94 1698.97C3134.82 1695.3 3127.76 1690.08 3121.77 1683.31C3115.97 1676.35 3111.43 1668.13 3108.14 1658.66C3105.05 1648.99 3103.5 1638.17 3103.5 1626.18C3103.5 1614.39 3105.05 1603.66 3108.14 1593.99C3111.43 1584.32 3115.97 1576.11 3121.77 1569.34C3127.76 1562.38 3134.82 1557.06 3142.94 1553.39C3151.25 1549.72 3160.53 1547.88 3170.78 1547.88C3180.83 1547.88 3189.82 1549.72 3197.75 1553.39C3205.68 1557.06 3212.44 1562.19 3218.05 1568.76C3223.66 1575.14 3227.91 1582.78 3230.81 1591.67C3233.9 1600.56 3235.45 1610.33 3235.45 1620.96V1631.98H3127.86V1638.94C3127.86 1645.32 3128.83 1651.31 3130.76 1656.92C3132.89 1662.33 3135.79 1667.07 3139.46 1671.13C3143.33 1675.19 3147.97 1678.38 3153.38 1680.7C3158.99 1683.02 3165.27 1684.18 3172.23 1684.18C3181.7 1684.18 3189.92 1681.96 3196.88 1677.51C3204.03 1673.06 3209.54 1666.68 3213.41 1658.37L3229.94 1670.26C3225.11 1680.51 3217.57 1688.82 3207.32 1695.2C3197.07 1701.39 3184.89 1704.48 3170.78 1704.48ZM3170.78 1567.31C3164.4 1567.31 3158.6 1568.47 3153.38 1570.79C3148.16 1572.92 3143.62 1576.01 3139.75 1580.07C3136.08 1584.13 3133.18 1588.96 3131.05 1594.57C3128.92 1599.98 3127.86 1605.98 3127.86 1612.55V1614.58H3210.51V1611.39C3210.51 1598.05 3206.84 1587.42 3199.49 1579.49C3192.34 1571.37 3182.77 1567.31 3170.78 1567.31ZM3273.68 1701V1551.36H3296.88V1575.72H3298.04C3301.71 1567.21 3306.84 1560.45 3313.41 1555.42C3320.18 1550.39 3329.17 1547.88 3340.38 1547.88C3355.85 1547.88 3368.03 1552.91 3376.92 1562.96C3386.01 1572.82 3390.55 1586.84 3390.55 1605.01V1701H3367.35V1609.07C3367.35 1582.2 3356.04 1568.76 3333.42 1568.76C3328.78 1568.76 3324.24 1569.34 3319.79 1570.5C3315.54 1571.66 3311.67 1573.4 3308.19 1575.72C3304.71 1578.04 3301.91 1581.04 3299.78 1584.71C3297.85 1588.19 3296.88 1592.35 3296.88 1597.18V1701H3273.68ZM3471.57 1701C3463.45 1701 3457.26 1698.78 3453.01 1694.33C3448.95 1689.69 3446.92 1683.7 3446.92 1676.35V1571.66H3422.27V1551.36H3436.19C3441.21 1551.36 3444.6 1550.39 3446.34 1548.46C3448.27 1546.33 3449.24 1542.76 3449.24 1537.73V1509.89H3470.12V1551.36H3502.89V1571.66H3470.12V1680.7H3500.57V1701H3471.57ZM3585.13 1704.48C3571.21 1704.48 3559.51 1701.87 3550.04 1696.65C3540.76 1691.24 3532.73 1684.08 3525.97 1675.19L3542.5 1661.85C3548.3 1669.2 3554.77 1674.9 3561.93 1678.96C3569.08 1682.83 3577.39 1684.76 3586.87 1684.76C3596.73 1684.76 3604.36 1682.63 3609.78 1678.38C3615.38 1674.13 3618.19 1668.13 3618.19 1660.4C3618.19 1654.6 3616.25 1649.67 3612.39 1645.61C3608.71 1641.36 3601.95 1638.46 3592.09 1636.91L3580.2 1635.17C3573.24 1634.2 3566.86 1632.75 3561.06 1630.82C3555.26 1628.69 3550.13 1625.99 3545.69 1622.7C3541.43 1619.22 3538.05 1614.97 3535.54 1609.94C3533.22 1604.91 3532.06 1598.92 3532.06 1591.96C3532.06 1584.61 3533.41 1578.23 3536.12 1572.82C3538.82 1567.21 3542.5 1562.57 3547.14 1558.9C3551.97 1555.23 3557.67 1552.52 3564.25 1550.78C3570.82 1548.85 3577.88 1547.88 3585.42 1547.88C3597.6 1547.88 3607.75 1550.01 3615.87 1554.26C3624.18 1558.51 3631.43 1564.41 3637.62 1571.95L3622.25 1585.87C3618.96 1581.23 3614.13 1577.07 3607.75 1573.4C3601.37 1569.53 3593.34 1567.6 3583.68 1567.6C3574.01 1567.6 3566.66 1569.73 3561.64 1573.98C3556.8 1578.04 3554.39 1583.65 3554.39 1590.8C3554.39 1598.15 3556.8 1603.46 3561.64 1606.75C3566.66 1610.04 3573.82 1612.45 3583.1 1614L3594.7 1615.74C3611.32 1618.25 3623.12 1623.09 3630.08 1630.24C3637.04 1637.2 3640.52 1646.38 3640.52 1657.79C3640.52 1672.29 3635.59 1683.7 3625.73 1692.01C3615.87 1700.32 3602.33 1704.48 3585.13 1704.48Z" fill="#11439F"/>
<path d="M3123.5 1371H3131.5V1401.8H3131.9C3133.23 1398.53 3135.17 1396.13 3137.7 1394.6C3140.3 1393 3143.4 1392.2 3147 1392.2C3150.2 1392.2 3153.1 1392.83 3155.7 1394.1C3158.3 1395.37 3160.5 1397.17 3162.3 1399.5C3164.17 1401.83 3165.57 1404.67 3166.5 1408C3167.5 1411.33 3168 1415.07 3168 1419.2C3168 1423.33 3167.5 1427.07 3166.5 1430.4C3165.57 1433.73 3164.17 1436.57 3162.3 1438.9C3160.5 1441.23 3158.3 1443.03 3155.7 1444.3C3153.1 1445.57 3150.2 1446.2 3147 1446.2C3140 1446.2 3134.97 1443 3131.9 1436.6H3131.5V1445H3123.5V1371ZM3144.8 1439C3149.33 1439 3152.9 1437.6 3155.5 1434.8C3158.1 1431.93 3159.4 1428.2 3159.4 1423.6V1414.8C3159.4 1410.2 3158.1 1406.5 3155.5 1403.7C3152.9 1400.83 3149.33 1399.4 3144.8 1399.4C3143 1399.4 3141.27 1399.67 3139.6 1400.2C3138 1400.67 3136.6 1401.33 3135.4 1402.2C3134.2 1403.07 3133.23 1404.13 3132.5 1405.4C3131.83 1406.6 3131.5 1407.9 3131.5 1409.3V1428.5C3131.5 1430.17 3131.83 1431.67 3132.5 1433C3133.23 1434.27 3134.2 1435.37 3135.4 1436.3C3136.6 1437.17 3138 1437.83 3139.6 1438.3C3141.27 1438.77 3143 1439 3144.8 1439ZM3212.82 1393.4H3220.72L3197.62 1457C3197.02 1458.53 3196.42 1459.8 3195.82 1460.8C3195.22 1461.87 3194.49 1462.7 3193.62 1463.3C3192.75 1463.9 3191.65 1464.33 3190.32 1464.6C3189.05 1464.87 3187.49 1465 3185.62 1465H3181.52V1458H3189.62L3193.52 1447L3174.22 1393.4H3182.22L3194.62 1428.5L3197.02 1436.9H3197.52L3200.32 1428.5L3212.82 1393.4ZM3300.55 1434.8H3300.25C3299.39 1438.07 3297.25 1440.8 3293.85 1443C3290.52 1445.13 3286.19 1446.2 3280.85 1446.2C3276.59 1446.2 3272.65 1445.43 3269.05 1443.9C3265.52 1442.3 3262.49 1440 3259.95 1437C3257.42 1433.93 3255.42 1430.17 3253.95 1425.7C3252.55 1421.17 3251.85 1415.97 3251.85 1410.1C3251.85 1404.3 3252.55 1399.17 3253.95 1394.7C3255.35 1390.17 3257.35 1386.4 3259.95 1383.4C3262.55 1380.33 3265.69 1378 3269.35 1376.4C3273.02 1374.8 3277.09 1374 3281.55 1374C3287.82 1374 3293.05 1375.4 3297.25 1378.2C3301.45 1381 3304.69 1384.7 3306.95 1389.3L3300.05 1393.5C3298.45 1389.77 3296.05 1386.83 3292.85 1384.7C3289.72 1382.57 3285.95 1381.5 3281.55 1381.5C3278.49 1381.5 3275.69 1382.07 3273.15 1383.2C3270.62 1384.27 3268.42 1385.8 3266.55 1387.8C3264.75 1389.8 3263.35 1392.2 3262.35 1395C3261.35 1397.8 3260.85 1400.93 3260.85 1404.4V1415.7C3260.85 1419.17 3261.35 1422.33 3262.35 1425.2C3263.35 1428 3264.75 1430.4 3266.55 1432.4C3268.42 1434.4 3270.69 1435.97 3273.35 1437.1C3276.02 1438.17 3279.02 1438.7 3282.35 1438.7C3284.75 1438.7 3287.02 1438.4 3289.15 1437.8C3291.35 1437.13 3293.25 1436.17 3294.85 1434.9C3296.52 1433.63 3297.82 1432.07 3298.75 1430.2C3299.69 1428.27 3300.15 1426 3300.15 1423.4V1416.5H3284.75V1409.1H3308.35V1445H3300.55V1434.8ZM3343.49 1446.2C3339.95 1446.2 3336.75 1445.57 3333.89 1444.3C3331.09 1443.03 3328.65 1441.23 3326.59 1438.9C3324.59 1436.5 3323.02 1433.67 3321.89 1430.4C3320.82 1427.07 3320.29 1423.33 3320.29 1419.2C3320.29 1415.13 3320.82 1411.43 3321.89 1408.1C3323.02 1404.77 3324.59 1401.93 3326.59 1399.6C3328.65 1397.2 3331.09 1395.37 3333.89 1394.1C3336.75 1392.83 3339.95 1392.2 3343.49 1392.2C3346.95 1392.2 3350.05 1392.83 3352.79 1394.1C3355.52 1395.37 3357.85 1397.13 3359.79 1399.4C3361.72 1401.6 3363.19 1404.23 3364.19 1407.3C3365.25 1410.37 3365.79 1413.73 3365.79 1417.4V1421.2H3328.69V1423.6C3328.69 1425.8 3329.02 1427.87 3329.69 1429.8C3330.42 1431.67 3331.42 1433.3 3332.69 1434.7C3334.02 1436.1 3335.62 1437.2 3337.49 1438C3339.42 1438.8 3341.59 1439.2 3343.99 1439.2C3347.25 1439.2 3350.09 1438.43 3352.49 1436.9C3354.95 1435.37 3356.85 1433.17 3358.19 1430.3L3363.89 1434.4C3362.22 1437.93 3359.62 1440.8 3356.09 1443C3352.55 1445.13 3348.35 1446.2 3343.49 1446.2ZM3343.49 1398.9C3341.29 1398.9 3339.29 1399.3 3337.49 1400.1C3335.69 1400.83 3334.12 1401.9 3332.79 1403.3C3331.52 1404.7 3330.52 1406.37 3329.79 1408.3C3329.05 1410.17 3328.69 1412.23 3328.69 1414.5V1415.2H3357.19V1414.1C3357.19 1409.5 3355.92 1405.83 3353.39 1403.1C3350.92 1400.3 3347.62 1398.9 3343.49 1398.9ZM3378.97 1445V1393.4H3386.97V1401.8H3387.37C3388.64 1398.87 3390.4 1396.53 3392.67 1394.8C3395 1393.07 3398.1 1392.2 3401.97 1392.2C3407.3 1392.2 3411.5 1393.93 3414.57 1397.4C3417.7 1400.8 3419.27 1405.63 3419.27 1411.9V1445H3411.27V1413.3C3411.27 1404.03 3407.37 1399.4 3399.57 1399.4C3397.97 1399.4 3396.4 1399.6 3394.87 1400C3393.4 1400.4 3392.07 1401 3390.87 1401.8C3389.67 1402.6 3388.7 1403.63 3387.97 1404.9C3387.3 1406.1 3386.97 1407.53 3386.97 1409.2V1445H3378.97ZM3460.24 1375.2H3483.64C3487.97 1375.2 3491.9 1375.93 3495.44 1377.4C3498.97 1378.87 3501.97 1381.07 3504.44 1384C3506.97 1386.87 3508.9 1390.5 3510.24 1394.9C3511.57 1399.23 3512.24 1404.3 3512.24 1410.1C3512.24 1415.9 3511.57 1421 3510.24 1425.4C3508.9 1429.73 3506.97 1433.37 3504.44 1436.3C3501.97 1439.17 3498.97 1441.33 3495.44 1442.8C3491.9 1444.27 3487.97 1445 3483.64 1445H3460.24V1375.2ZM3483.64 1437.6C3486.5 1437.6 3489.14 1437.13 3491.54 1436.2C3493.94 1435.2 3496 1433.77 3497.74 1431.9C3499.47 1430.03 3500.8 1427.77 3501.74 1425.1C3502.74 1422.37 3503.24 1419.27 3503.24 1415.8V1404.4C3503.24 1400.93 3502.74 1397.87 3501.74 1395.2C3500.8 1392.47 3499.47 1390.17 3497.74 1388.3C3496 1386.43 3493.94 1385.03 3491.54 1384.1C3489.14 1383.1 3486.5 1382.6 3483.64 1382.6H3468.64V1437.6H3483.64ZM3530.53 1381.3C3528.79 1381.3 3527.53 1380.9 3526.73 1380.1C3525.99 1379.23 3525.63 1378.13 3525.63 1376.8V1375.5C3525.63 1374.17 3525.99 1373.1 3526.73 1372.3C3527.53 1371.43 3528.79 1371 3530.53 1371C3532.26 1371 3533.49 1371.43 3534.23 1372.3C3535.03 1373.1 3535.43 1374.17 3535.43 1375.5V1376.8C3535.43 1378.13 3535.03 1379.23 3534.23 1380.1C3533.49 1380.9 3532.26 1381.3 3530.53 1381.3ZM3526.53 1393.4H3534.53V1445H3526.53V1393.4ZM3595.03 1450.7C3595.03 1456.03 3592.93 1459.93 3588.73 1462.4C3584.59 1464.93 3578.36 1466.2 3570.03 1466.2C3561.96 1466.2 3556.16 1465.1 3552.63 1462.9C3549.09 1460.7 3547.33 1457.57 3547.33 1453.5C3547.33 1450.7 3548.06 1448.5 3549.53 1446.9C3550.99 1445.37 3552.99 1444.23 3555.53 1443.5V1442.4C3552.46 1440.93 3550.93 1438.53 3550.93 1435.2C3550.93 1432.6 3551.76 1430.63 3553.43 1429.3C3555.09 1427.9 3557.23 1426.87 3559.83 1426.2V1425.8C3556.76 1424.33 3554.36 1422.23 3552.63 1419.5C3550.96 1416.77 3550.13 1413.6 3550.13 1410C3550.13 1407.4 3550.59 1405 3551.53 1402.8C3552.46 1400.6 3553.76 1398.73 3555.43 1397.2C3557.16 1395.6 3559.19 1394.37 3561.53 1393.5C3563.93 1392.63 3566.59 1392.2 3569.53 1392.2C3573.19 1392.2 3576.46 1392.87 3579.33 1394.2V1393.3C3579.33 1391.3 3579.79 1389.67 3580.73 1388.4C3581.66 1387.07 3583.19 1386.4 3585.33 1386.4H3593.03V1393.4H3583.23V1396.7C3585.09 1398.3 3586.53 1400.23 3587.53 1402.5C3588.59 1404.7 3589.13 1407.2 3589.13 1410C3589.13 1412.6 3588.66 1415 3587.73 1417.2C3586.79 1419.4 3585.46 1421.3 3583.73 1422.9C3582.06 1424.43 3580.03 1425.63 3577.63 1426.5C3575.23 1427.37 3572.56 1427.8 3569.63 1427.8C3567.96 1427.8 3566.29 1427.63 3564.63 1427.3C3562.89 1427.77 3561.33 1428.47 3559.93 1429.4C3558.53 1430.27 3557.83 1431.5 3557.83 1433.1C3557.83 1434.63 3558.56 1435.67 3560.03 1436.2C3561.49 1436.73 3563.39 1437 3565.73 1437H3576.73C3583.13 1437 3587.76 1438.23 3590.63 1440.7C3593.56 1443.1 3595.03 1446.43 3595.03 1450.7ZM3587.53 1451.3C3587.53 1449.23 3586.73 1447.57 3585.13 1446.3C3583.59 1445.1 3580.83 1444.5 3576.83 1444.5H3559.63C3556.43 1445.97 3554.83 1448.3 3554.83 1451.5C3554.83 1453.77 3555.66 1455.7 3557.33 1457.3C3559.06 1458.9 3561.96 1459.7 3566.03 1459.7H3573.43C3577.89 1459.7 3581.36 1459 3583.83 1457.6C3586.29 1456.2 3587.53 1454.1 3587.53 1451.3ZM3569.63 1421.4C3573.03 1421.4 3575.73 1420.6 3577.73 1419C3579.73 1417.33 3580.73 1414.8 3580.73 1411.4V1408.6C3580.73 1405.2 3579.73 1402.7 3577.73 1401.1C3575.73 1399.43 3573.03 1398.6 3569.63 1398.6C3566.23 1398.6 3563.53 1399.43 3561.53 1401.1C3559.53 1402.7 3558.53 1405.2 3558.53 1408.6V1411.4C3558.53 1414.8 3559.53 1417.33 3561.53 1419C3563.53 1420.6 3566.23 1421.4 3569.63 1421.4ZM3608.36 1381.3C3606.63 1381.3 3605.36 1380.9 3604.56 1380.1C3603.83 1379.23 3603.46 1378.13 3603.46 1376.8V1375.5C3603.46 1374.17 3603.83 1373.1 3604.56 1372.3C3605.36 1371.43 3606.63 1371 3608.36 1371C3610.09 1371 3611.33 1371.43 3612.06 1372.3C3612.86 1373.1 3613.26 1374.17 3613.26 1375.5V1376.8C3613.26 1378.13 3612.86 1379.23 3612.06 1380.1C3611.33 1380.9 3610.09 1381.3 3608.36 1381.3ZM3604.36 1393.4H3612.36V1445H3604.36V1393.4ZM3640.76 1445C3637.96 1445 3635.83 1444.23 3634.36 1442.7C3632.96 1441.1 3632.26 1439.03 3632.26 1436.5V1400.4H3623.76V1393.4H3628.56C3630.29 1393.4 3631.46 1393.07 3632.06 1392.4C3632.73 1391.67 3633.06 1390.43 3633.06 1388.7V1379.1H3640.26V1393.4H3651.56V1400.4H3640.26V1438H3650.76V1445H3640.76ZM3701.92 1445C3698.92 1445 3696.75 1444.2 3695.42 1442.6C3694.15 1441 3693.35 1439 3693.02 1436.6H3692.52C3691.38 1439.8 3689.52 1442.2 3686.92 1443.8C3684.32 1445.4 3681.22 1446.2 3677.62 1446.2C3672.15 1446.2 3667.88 1444.8 3664.82 1442C3661.82 1439.2 3660.32 1435.4 3660.32 1430.6C3660.32 1425.73 3662.08 1422 3665.62 1419.4C3669.22 1416.8 3674.78 1415.5 3682.32 1415.5H3692.52V1410.4C3692.52 1406.73 3691.52 1403.93 3689.52 1402C3687.52 1400.07 3684.45 1399.1 3680.32 1399.1C3677.18 1399.1 3674.55 1399.8 3672.42 1401.2C3670.35 1402.6 3668.62 1404.47 3667.22 1406.8L3662.42 1402.3C3663.82 1399.5 3666.05 1397.13 3669.12 1395.2C3672.18 1393.2 3676.05 1392.2 3680.72 1392.2C3686.98 1392.2 3691.85 1393.73 3695.32 1396.8C3698.78 1399.87 3700.52 1404.13 3700.52 1409.6V1438H3706.42V1445H3701.92ZM3678.92 1439.4C3680.92 1439.4 3682.75 1439.17 3684.42 1438.7C3686.08 1438.23 3687.52 1437.57 3688.72 1436.7C3689.92 1435.83 3690.85 1434.83 3691.52 1433.7C3692.18 1432.57 3692.52 1431.33 3692.52 1430V1421.5H3681.92C3677.32 1421.5 3673.95 1422.17 3671.82 1423.5C3669.75 1424.83 3668.72 1426.77 3668.72 1429.3V1431.4C3668.72 1433.93 3669.62 1435.9 3671.42 1437.3C3673.28 1438.7 3675.78 1439.4 3678.92 1439.4ZM3726.34 1445C3723.54 1445 3721.4 1444.23 3719.94 1442.7C3718.54 1441.1 3717.84 1439.1 3717.84 1436.7V1371H3725.84V1438H3733.44V1445H3726.34Z" fill="#11439F"/>
</svg>
